<svg xmlns="http://www.w3.org/2000/svg" xmlns:xlink="http://www.w3.org/1999/xlink" width="500" zoomAndPan="magnify" viewBox="0 0 375 374.999991" height="500" preserveAspectRatio="xMidYMid meet" version="1.0"><defs><g/><clipPath id="4c4ef051a7"><path d="M 96.277344 193.011719 L 180.941406 193.011719 L 180.941406 359.367188 L 96.277344 359.367188 Z M 96.277344 193.011719 " clip-rule="nonzero"/></clipPath><clipPath id="619353784e"><path d="M 180.722656 5.234375 L 278.113281 5.234375 L 278.113281 200.984375 L 180.722656 200.984375 Z M 180.722656 5.234375 " clip-rule="nonzero"/></clipPath></defs><g fill="#ea2b80" fill-opacity="1"><g transform="translate(37.761303, 187.823085)"><g><path d="M 8.53125 -108.03125 C 8.53125 -114.664062 10.492188 -120.78125 14.421875 -126.375 C 18.359375 -131.96875 24.117188 -136.46875 31.703125 -139.875 C 39.285156 -143.289062 48.523438 -145 59.421875 -145 C 68.140625 -145 75.695312 -144.378906 82.09375 -143.140625 C 88.488281 -141.910156 94.4375 -140.347656 99.9375 -138.453125 L 99.9375 -119.40625 L 98.515625 -119.40625 C 98.515625 -119.40625 98.132812 -120.210938 97.375 -121.828125 C 96.613281 -123.441406 95.332031 -125.429688 93.53125 -127.796875 C 91.738281 -130.171875 89.347656 -132.539062 86.359375 -134.90625 C 83.367188 -137.269531 79.644531 -139.257812 75.1875 -140.875 C 70.738281 -142.488281 65.484375 -143.296875 59.421875 -143.296875 C 50.609375 -143.296875 43.144531 -141.726562 37.03125 -138.59375 C 30.914062 -135.46875 26.296875 -131.488281 23.171875 -126.65625 C 20.046875 -121.820312 18.484375 -116.753906 18.484375 -111.453125 C 18.484375 -106.617188 19.738281 -102.492188 22.25 -99.078125 C 24.757812 -95.671875 28.171875 -92.734375 32.484375 -90.265625 C 36.796875 -87.804688 41.601562 -85.628906 46.90625 -83.734375 C 52.21875 -81.835938 57.71875 -79.941406 63.40625 -78.046875 C 69.09375 -76.148438 74.585938 -74.085938 79.890625 -71.859375 C 85.203125 -69.628906 90.007812 -66.953125 94.3125 -63.828125 C 98.625 -60.703125 102.035156 -56.9375 104.546875 -52.53125 C 107.066406 -48.125 108.328125 -42.789062 108.328125 -36.53125 C 108.328125 -31.601562 107.09375 -26.789062 104.625 -22.09375 C 102.164062 -17.40625 98.613281 -13.191406 93.96875 -9.453125 C 89.320312 -5.710938 83.726562 -2.726562 77.1875 -0.5 C 70.644531 1.726562 63.253906 2.84375 55.015625 2.84375 C 48.753906 2.84375 42.78125 1.941406 37.09375 0.140625 C 31.414062 -1.660156 26.207031 -3.910156 21.46875 -6.609375 C 16.726562 -9.304688 12.601562 -11.9375 9.09375 -14.5 L 9.09375 -33.546875 L 10.515625 -33.546875 C 10.515625 -33.546875 11.25 -32.40625 12.71875 -30.125 C 14.1875 -27.851562 16.363281 -25.035156 19.25 -21.671875 C 22.144531 -18.304688 25.703125 -14.941406 29.921875 -11.578125 C 34.140625 -8.222656 39.019531 -5.40625 44.5625 -3.125 C 50.101562 -0.851562 56.238281 0.28125 62.96875 0.28125 C 68.1875 0.28125 73.046875 -0.566406 77.546875 -2.265625 C 82.046875 -3.972656 85.976562 -6.296875 89.34375 -9.234375 C 92.707031 -12.171875 95.335938 -15.488281 97.234375 -19.1875 C 99.128906 -22.882812 100.078125 -26.722656 100.078125 -30.703125 C 100.078125 -36.015625 98.796875 -40.585938 96.234375 -44.421875 C 93.679688 -48.265625 90.222656 -51.554688 85.859375 -54.296875 C 81.503906 -57.046875 76.597656 -59.507812 71.140625 -61.6875 C 65.691406 -63.875 60.078125 -65.960938 54.296875 -67.953125 C 48.515625 -69.941406 42.898438 -72.070312 37.453125 -74.34375 C 32.003906 -76.625 27.097656 -79.253906 22.734375 -82.234375 C 18.378906 -85.222656 14.921875 -88.828125 12.359375 -93.046875 C 9.804688 -97.265625 8.53125 -102.257812 8.53125 -108.03125 Z M 8.53125 -108.03125 "/></g></g></g><g fill="#ea2b80" fill-opacity="1"><g transform="translate(210.109758, 340.457186)"><g><path d="M 8.53125 -108.03125 C 8.53125 -114.664062 10.492188 -120.78125 14.421875 -126.375 C 18.359375 -131.96875 24.117188 -136.46875 31.703125 -139.875 C 39.285156 -143.289062 48.523438 -145 59.421875 -145 C 68.140625 -145 75.695312 -144.378906 82.09375 -143.140625 C 88.488281 -141.910156 94.4375 -140.347656 99.9375 -138.453125 L 99.9375 -119.40625 L 98.515625 -119.40625 C 98.515625 -119.40625 98.132812 -120.210938 97.375 -121.828125 C 96.613281 -123.441406 95.332031 -125.429688 93.53125 -127.796875 C 91.738281 -130.171875 89.347656 -132.539062 86.359375 -134.90625 C 83.367188 -137.269531 79.644531 -139.257812 75.1875 -140.875 C 70.738281 -142.488281 65.484375 -143.296875 59.421875 -143.296875 C 50.609375 -143.296875 43.144531 -141.726562 37.03125 -138.59375 C 30.914062 -135.46875 26.296875 -131.488281 23.171875 -126.65625 C 20.046875 -121.820312 18.484375 -116.753906 18.484375 -111.453125 C 18.484375 -106.617188 19.738281 -102.492188 22.25 -99.078125 C 24.757812 -95.671875 28.171875 -92.734375 32.484375 -90.265625 C 36.796875 -87.804688 41.601562 -85.628906 46.90625 -83.734375 C 52.21875 -81.835938 57.71875 -79.941406 63.40625 -78.046875 C 69.09375 -76.148438 74.585938 -74.085938 79.890625 -71.859375 C 85.203125 -69.628906 90.007812 -66.953125 94.3125 -63.828125 C 98.625 -60.703125 102.035156 -56.9375 104.546875 -52.53125 C 107.066406 -48.125 108.328125 -42.789062 108.328125 -36.53125 C 108.328125 -31.601562 107.09375 -26.789062 104.625 -22.09375 C 102.164062 -17.40625 98.613281 -13.191406 93.96875 -9.453125 C 89.320312 -5.710938 83.726562 -2.726562 77.1875 -0.5 C 70.644531 1.726562 63.253906 2.84375 55.015625 2.84375 C 48.753906 2.84375 42.78125 1.941406 37.09375 0.140625 C 31.414062 -1.660156 26.207031 -3.910156 21.46875 -6.609375 C 16.726562 -9.304688 12.601562 -11.9375 9.09375 -14.5 L 9.09375 -33.546875 L 10.515625 -33.546875 C 10.515625 -33.546875 11.25 -32.40625 12.71875 -30.125 C 14.1875 -27.851562 16.363281 -25.035156 19.25 -21.671875 C 22.144531 -18.304688 25.703125 -14.941406 29.921875 -11.578125 C 34.140625 -8.222656 39.019531 -5.40625 44.5625 -3.125 C 50.101562 -0.851562 56.238281 0.28125 62.96875 0.28125 C 68.1875 0.28125 73.046875 -0.566406 77.546875 -2.265625 C 82.046875 -3.972656 85.976562 -6.296875 89.34375 -9.234375 C 92.707031 -12.171875 95.335938 -15.488281 97.234375 -19.1875 C 99.128906 -22.882812 100.078125 -26.722656 100.078125 -30.703125 C 100.078125 -36.015625 98.796875 -40.585938 96.234375 -44.421875 C 93.679688 -48.265625 90.222656 -51.554688 85.859375 -54.296875 C 81.503906 -57.046875 76.597656 -59.507812 71.140625 -61.6875 C 65.691406 -63.875 60.078125 -65.960938 54.296875 -67.953125 C 48.515625 -69.941406 42.898438 -72.070312 37.453125 -74.34375 C 32.003906 -76.625 27.097656 -79.253906 22.734375 -82.234375 C 18.378906 -85.222656 14.921875 -88.828125 12.359375 -93.046875 C 9.804688 -97.265625 8.53125 -102.257812 8.53125 -108.03125 Z M 8.53125 -108.03125 "/></g></g></g><path stroke-linecap="butt" transform="matrix(0, -0.75, 0.75, 0, 178.098612, 386.122532)" fill="none" stroke-linejoin="miter" d="M 0.00191799 2.998726 L 514.830077 2.998726 " stroke="#ea2b80" stroke-width="6" stroke-opacity="1" stroke-miterlimit="4"/><g clip-path="url(#4c4ef051a7)"><path fill="#ea2b80" d="M 226.6875 302.214844 C 227.417969 302.214844 228.011719 301.621094 228.011719 300.890625 C 228.011719 300.164062 227.417969 299.570312 226.6875 299.570312 C 225.960938 299.570312 225.367188 300.164062 225.367188 300.890625 C 225.367188 301.621094 225.960938 302.214844 226.6875 302.214844 Z M 234.933594 295.507812 C 235.664062 295.507812 236.253906 294.914062 236.253906 294.183594 C 236.253906 293.453125 235.664062 292.863281 234.933594 292.863281 C 234.203125 292.863281 233.613281 293.453125 233.613281 294.183594 C 233.613281 294.914062 234.203125 295.507812 234.933594 295.507812 Z M 234.269531 274.792969 C 233.539062 274.792969 232.945312 275.382812 232.945312 276.113281 C 232.945312 276.84375 233.539062 277.433594 234.269531 277.433594 C 235 277.433594 235.589844 276.84375 235.589844 276.113281 C 235.589844 275.382812 235 274.792969 234.269531 274.792969 Z M 228.011719 225.5 C 228.742188 225.5 229.332031 224.90625 229.332031 224.175781 C 229.332031 223.445312 228.742188 222.855469 228.011719 222.855469 C 227.28125 222.855469 226.6875 223.445312 226.6875 224.175781 C 226.6875 224.90625 227.28125 225.5 228.011719 225.5 Z M 230.730469 257.09375 C 229.996094 257.09375 229.40625 257.6875 229.40625 258.417969 C 229.40625 259.144531 229.996094 259.738281 230.730469 259.738281 C 231.457031 259.738281 232.050781 259.144531 232.050781 258.417969 C 232.050781 257.6875 231.457031 257.09375 230.730469 257.09375 Z M 239.929688 262.492188 C 239.199219 262.492188 238.609375 263.085938 238.609375 263.8125 C 238.609375 264.542969 239.199219 265.136719 239.929688 265.136719 C 240.660156 265.136719 241.253906 264.542969 241.253906 263.8125 C 241.253906 263.085938 240.660156 262.492188 239.929688 262.492188 Z M 230.179688 347.738281 C 229.941406 348.914062 229.207031 349.910156 228.003906 349.910156 C 226.804688 349.910156 225.832031 348.9375 225.832031 347.738281 C 225.832031 346.535156 226.804688 345.5625 228.003906 345.5625 C 228.003906 345.5625 225.214844 344.984375 224.914062 347.949219 C 224.734375 349.726562 226.875 350.269531 228.015625 350.269531 C 229.160156 350.269531 233.203125 350.039062 232.324219 342.832031 C 231.246094 334.019531 222.3125 319.070312 180.4375 292.070312 C 183.132812 293.820312 234.324219 327.363281 230.179688 347.738281 Z M 180.320312 338.246094 L 180.320312 341.179688 C 188.640625 341.179688 190.914062 321.503906 180.320312 291.996094 C 194.042969 339.007812 180.320312 338.246094 180.320312 338.246094 Z M 180.355469 292.015625 C 180.382812 292.035156 180.410156 292.050781 180.4375 292.070312 C 180.402344 292.046875 180.371094 292.027344 180.351562 292.015625 C 180.335938 292.003906 180.324219 291.996094 180.320312 291.996094 C 180.320312 291.996094 180.597656 292.230469 181.089844 292.652344 C 180.703125 292.304688 180.445312 292.082031 180.355469 292.015625 Z M 199.117188 320.292969 C 192.753906 326.527344 184.121094 304.128906 184.121094 304.128906 C 184.121094 304.128906 191.675781 328.917969 200.28125 322.757812 C 208.476562 316.898438 185.632812 296.570312 181.089844 292.652344 C 185.253906 296.378906 204.632812 314.894531 199.117188 320.292969 Z M 182.207031 191.851562 C 181.039062 191 180.347656 190.617188 180.347656 190.617188 C 180.980469 191.019531 181.597656 191.433594 182.207031 191.851562 Z M 263.414062 241.589844 C 234.929688 243.875 206.289062 259.117188 200 262.640625 C 199.824219 264.152344 199.566406 265.59375 199.246094 266.976562 C 214.035156 260.433594 223.898438 260.433594 223.898438 260.433594 C 214.105469 262.359375 202.453125 267.832031 198.460938 269.878906 C 197.617188 272.542969 196.523438 274.933594 195.296875 277.085938 C 221.835938 270.300781 236.253906 264.558594 236.253906 264.558594 C 224.113281 272.359375 196.003906 279.554688 193.003906 280.652344 C 191.453125 282.789062 189.808594 284.601562 188.238281 286.113281 C 216.445312 285.011719 227.671875 281.144531 227.671875 281.144531 C 214.175781 289.097656 186.527344 288.914062 185.023438 288.898438 C 183.128906 290.375 181.59375 291.304688 180.84375 291.726562 L 182.234375 291.089844 C 182.234375 291.089844 185.773438 290.078125 198.234375 290.296875 C 210.34375 290.507812 223.542969 287.734375 237.214844 281.375 C 263.628906 269.082031 263.414062 241.589844 263.414062 241.589844 Z M 211.039062 239.507812 C 214.164062 234.601562 218.601562 231.460938 218.601562 231.460938 C 215.171875 234.894531 212.828125 239.46875 211.523438 242.511719 C 212.175781 247.035156 212.332031 250.535156 212.363281 252.359375 C 216.683594 243.089844 225.367188 229.570312 225.367188 229.570312 C 222.230469 240.183594 218.195312 248.414062 216.28125 252.027344 C 218.03125 251.3125 219.910156 250.585938 221.917969 249.859375 C 226.273438 242.875 227.347656 235.675781 227.347656 235.675781 C 227.503906 241.851562 226.011719 246.417969 225 248.78125 C 227.367188 247.980469 229.886719 247.191406 232.554688 246.429688 L 232.277344 246.507812 C 240.835938 228.464844 233.726562 210.523438 233.726562 210.523438 C 220.71875 214.828125 211.59375 226.75 208.957031 230.53125 C 209.875 233.726562 210.546875 236.753906 211.039062 239.507812 Z M 180.316406 291.96875 C 180.3125 291.964844 180.308594 291.964844 180.304688 291.960938 C 180.300781 291.964844 180.296875 291.964844 180.292969 291.96875 L 180.304688 291.972656 Z M 179.765625 291.726562 C 179.015625 291.304688 177.480469 290.375 175.582031 288.898438 C 174.082031 288.914062 146.433594 289.097656 132.933594 281.144531 C 132.933594 281.144531 144.164062 285.011719 172.371094 286.113281 C 170.800781 284.601562 169.15625 282.789062 167.605469 280.652344 C 164.605469 279.554688 136.496094 272.359375 124.355469 264.558594 C 124.355469 264.558594 138.773438 270.300781 165.3125 277.085938 C 164.085938 274.933594 162.992188 272.542969 162.148438 269.878906 C 158.15625 267.832031 146.5 262.359375 136.710938 260.433594 C 136.710938 260.433594 146.574219 260.433594 161.363281 266.976562 C 161.042969 265.59375 160.785156 264.152344 160.609375 262.640625 C 154.320312 259.117188 125.679688 243.875 97.195312 241.589844 C 97.195312 241.589844 96.980469 269.082031 123.394531 281.375 C 137.0625 287.734375 150.265625 290.507812 162.375 290.296875 C 174.832031 290.078125 178.375 291.089844 178.375 291.089844 Z M 128.332031 246.507812 L 128.054688 246.429688 C 130.722656 247.191406 133.242188 247.980469 135.609375 248.78125 C 134.597656 246.417969 133.105469 241.851562 133.261719 235.675781 C 133.261719 235.675781 134.335938 242.875 138.691406 249.859375 C 140.695312 250.585938 142.578125 251.3125 144.328125 252.027344 C 142.414062 248.414062 138.378906 240.183594 135.242188 229.570312 C 135.242188 229.570312 143.925781 243.089844 148.242188 252.359375 C 148.273438 250.535156 148.429688 247.035156 149.085938 242.511719 C 147.777344 239.46875 145.4375 234.894531 142.007812 231.460938 C 142.007812 231.460938 146.445312 234.601562 149.570312 239.507812 C 150.0625 236.753906 150.734375 233.726562 151.652344 230.53125 C 149.015625 226.75 139.890625 214.828125 126.882812 210.523438 C 126.882812 210.523438 119.769531 228.464844 128.332031 246.507812 Z M 222.691406 307.128906 C 196.207031 304.101562 195.453125 295.777344 180.320312 291.996094 C 192.449219 293.277344 198.074219 301.863281 223.1875 304.742188 C 246.105469 307.363281 260.4375 298.707031 260.4375 298.707031 C 255.898438 289.179688 243.753906 285.339844 239.265625 284.214844 C 230.421875 288.980469 220.785156 290.757812 211.683594 291.359375 C 214.832031 292.441406 220.496094 294.183594 225.980469 294.835938 C 225.980469 294.835938 213.253906 293.996094 206.375 291.597656 C 202.574219 291.6875 198.917969 291.628906 195.519531 291.5625 C 197.070312 292.222656 199.96875 293.496094 202.042969 294.675781 C 204.996094 296.359375 213.320312 299.410156 218.582031 299.570312 C 219.136719 299.585938 207.289062 299.492188 200.28125 295.507812 C 196 293.074219 192.964844 291.976562 191.242188 291.488281 C 186.984375 291.433594 183.269531 291.480469 180.363281 291.988281 C 180.359375 291.988281 180.347656 291.996094 180.347656 291.996094 C 180.347656 291.996094 180.359375 291.988281 180.359375 291.988281 C 180.355469 291.988281 180.347656 291.988281 180.34375 291.992188 C 180.34375 291.992188 180.347656 291.992188 180.347656 291.996094 C 180.347656 291.996094 180.34375 291.992188 180.34375 291.992188 C 180.34375 291.992188 180.34375 291.992188 180.339844 291.992188 L 180.347656 291.996094 L 180.261719 291.996094 L 180.269531 291.992188 C 180.265625 291.992188 180.265625 291.992188 180.265625 291.992188 C 180.261719 291.992188 180.261719 291.996094 180.261719 291.996094 C 180.261719 291.992188 180.261719 291.992188 180.265625 291.992188 C 180.257812 291.988281 180.253906 291.988281 180.246094 291.988281 C 180.25 291.988281 180.261719 291.996094 180.261719 291.996094 C 180.261719 291.996094 180.25 291.988281 180.246094 291.988281 C 177.339844 291.480469 173.625 291.433594 169.367188 291.488281 C 167.644531 291.976562 164.605469 293.074219 160.324219 295.507812 C 153.320312 299.492188 141.46875 299.585938 142.023438 299.570312 C 147.289062 299.410156 155.613281 296.359375 158.566406 294.675781 C 160.640625 293.496094 163.539062 292.222656 165.089844 291.5625 C 161.691406 291.628906 158.035156 291.6875 154.234375 291.597656 C 147.351562 293.996094 134.628906 294.835938 134.628906 294.835938 C 140.113281 294.183594 145.777344 292.441406 148.925781 291.359375 C 139.824219 290.757812 130.1875 288.980469 121.34375 284.214844 C 116.855469 285.339844 104.710938 289.179688 100.171875 298.707031 C 100.171875 298.707031 114.5 307.363281 137.421875 304.742188 C 162.535156 301.863281 168.160156 293.277344 180.289062 291.996094 C 165.15625 295.777344 164.398438 304.101562 137.914062 307.128906 C 113.753906 309.890625 99.324219 298.804688 99.324219 298.804688 C 103.863281 286.695312 119 282.914062 120.058594 283.5 C 118.933594 282.851562 117.824219 282.15625 116.730469 281.398438 C 94.785156 266.265625 96.296875 240.539062 96.296875 240.539062 C 107.246094 241.554688 116.984375 243.453125 125.375 245.691406 L 124.753906 245.519531 C 124.753906 245.519531 117.484375 229.191406 126.566406 209.515625 C 126.566406 209.515625 142.984375 215.015625 152.574219 227.527344 C 156.523438 215.46875 164.058594 201.691406 178.402344 191.851562 C 172.460938 196.195312 154.097656 212.898438 151.152344 255.023438 C 155.890625 257.265625 159.015625 259.105469 160.382812 259.949219 C 160.347656 259.242188 160.324219 258.527344 160.324219 257.792969 C 160.324219 232.984375 173.449219 222.953125 180.261719 219.167969 C 180.261719 219.167969 162.722656 229.554688 162.722656 258.269531 C 162.722656 280.621094 177.484375 290.34375 179.914062 291.792969 L 180.292969 291.96875 C 180.296875 291.964844 180.300781 291.960938 180.304688 291.960938 C 180.265625 291.929688 180.199219 291.882812 180.105469 291.808594 C 180.171875 291.859375 180.238281 291.910156 180.304688 291.960938 C 180.371094 291.910156 180.433594 291.859375 180.5 291.808594 C 180.410156 291.882812 180.34375 291.929688 180.304688 291.960938 C 180.308594 291.960938 180.3125 291.964844 180.316406 291.96875 L 180.695312 291.792969 C 183.125 290.34375 197.882812 280.621094 197.882812 258.269531 C 197.882812 229.554688 180.347656 219.167969 180.347656 219.167969 C 187.160156 222.953125 200.28125 232.984375 200.28125 257.792969 C 200.28125 258.527344 200.261719 259.242188 200.226562 259.949219 C 201.589844 259.105469 204.71875 257.265625 209.457031 255.023438 C 206.511719 212.898438 188.148438 196.195312 182.207031 191.851562 C 196.550781 201.691406 204.085938 215.46875 208.035156 227.527344 C 217.625 215.015625 234.042969 209.515625 234.042969 209.515625 C 243.121094 229.191406 235.855469 245.519531 235.855469 245.519531 L 235.234375 245.691406 C 243.625 243.453125 253.359375 241.554688 264.3125 240.539062 C 264.3125 240.539062 265.824219 266.265625 243.878906 281.398438 C 242.785156 282.15625 241.675781 282.851562 240.550781 283.5 C 241.609375 282.914062 256.742188 286.695312 261.285156 298.804688 C 261.285156 298.804688 246.855469 309.890625 222.691406 307.128906 Z M 181.234375 346.183594 C 181.234375 345.453125 180.640625 344.863281 179.910156 344.863281 C 179.179688 344.863281 178.589844 345.453125 178.589844 346.183594 C 178.589844 346.914062 179.179688 347.503906 179.910156 347.503906 C 180.640625 347.503906 181.234375 346.914062 181.234375 346.183594 Z M 229.332031 353.363281 C 228.601562 353.363281 228.011719 353.957031 228.011719 354.6875 C 228.011719 355.417969 228.601562 356.007812 229.332031 356.007812 C 230.0625 356.007812 230.65625 355.417969 230.65625 354.6875 C 230.65625 353.957031 230.0625 353.363281 229.332031 353.363281 Z M 133.25 353.363281 C 132.519531 353.363281 131.929688 353.957031 131.929688 354.6875 C 131.929688 355.417969 132.519531 356.007812 133.25 356.007812 C 133.980469 356.007812 134.570312 355.417969 134.570312 354.6875 C 134.570312 353.957031 133.980469 353.363281 133.25 353.363281 Z M 133.917969 299.570312 C 133.1875 299.570312 132.597656 300.164062 132.597656 300.890625 C 132.597656 301.621094 133.1875 302.214844 133.917969 302.214844 C 134.648438 302.214844 135.242188 301.621094 135.242188 300.890625 C 135.242188 300.164062 134.648438 299.570312 133.917969 299.570312 Z M 125.675781 292.863281 C 124.945312 292.863281 124.355469 293.453125 124.355469 294.183594 C 124.355469 294.914062 124.945312 295.507812 125.675781 295.507812 C 126.40625 295.507812 126.996094 294.914062 126.996094 294.183594 C 126.996094 293.453125 126.40625 292.863281 125.675781 292.863281 Z M 126.339844 274.792969 C 125.609375 274.792969 125.019531 275.382812 125.019531 276.113281 C 125.019531 276.84375 125.609375 277.433594 126.339844 277.433594 C 127.070312 277.433594 127.664062 276.84375 127.664062 276.113281 C 127.664062 275.382812 127.070312 274.792969 126.339844 274.792969 Z M 132.597656 225.5 C 133.328125 225.5 133.917969 224.90625 133.917969 224.175781 C 133.917969 223.445312 133.328125 222.855469 132.597656 222.855469 C 131.867188 222.855469 131.273438 223.445312 131.273438 224.175781 C 131.273438 224.90625 131.867188 225.5 132.597656 225.5 Z M 178.980469 234.355469 C 178.980469 235.085938 179.570312 235.675781 180.300781 235.675781 C 181.03125 235.675781 181.625 235.085938 181.625 234.355469 C 181.625 233.625 181.03125 233.035156 180.300781 233.035156 C 179.570312 233.035156 178.980469 233.625 178.980469 234.355469 Z M 191.550781 248.597656 C 191.550781 247.867188 190.957031 247.273438 190.226562 247.273438 C 189.496094 247.273438 188.90625 247.867188 188.90625 248.597656 C 188.90625 249.328125 189.496094 249.917969 190.226562 249.917969 C 190.957031 249.917969 191.550781 249.328125 191.550781 248.597656 Z M 167.734375 248.597656 C 167.734375 249.328125 168.324219 249.917969 169.054688 249.917969 C 169.785156 249.917969 170.378906 249.328125 170.378906 248.597656 C 170.378906 247.867188 169.785156 247.273438 169.054688 247.273438 C 168.324219 247.273438 167.734375 247.867188 167.734375 248.597656 Z M 129.777344 259.738281 C 130.507812 259.738281 131.101562 259.144531 131.101562 258.417969 C 131.101562 257.6875 130.507812 257.09375 129.777344 257.09375 C 129.050781 257.09375 128.457031 257.6875 128.457031 258.417969 C 128.457031 259.144531 129.050781 259.738281 129.777344 259.738281 Z M 120.679688 262.492188 C 119.949219 262.492188 119.355469 263.085938 119.355469 263.8125 C 119.355469 264.542969 119.949219 265.136719 120.679688 265.136719 C 121.40625 265.136719 122 264.542969 122 263.8125 C 122 263.085938 121.40625 262.492188 120.679688 262.492188 Z M 179.910156 352.144531 C 181.46875 352.144531 182.734375 353.792969 182.734375 355.820312 C 182.734375 357.851562 181.46875 359.496094 179.910156 359.496094 C 181.941406 359.496094 183.585938 357.851562 183.585938 355.820312 C 183.585938 353.792969 181.941406 352.144531 179.910156 352.144531 Z M 177.085938 355.820312 C 177.085938 353.792969 178.351562 352.144531 179.910156 352.144531 C 177.882812 352.144531 176.234375 353.792969 176.234375 355.820312 C 176.234375 357.851562 177.882812 359.496094 179.910156 359.496094 C 178.351562 359.496094 177.085938 357.851562 177.085938 355.820312 Z M 183.476562 205.742188 C 183.476562 208.304688 181.878906 210.382812 179.910156 210.382812 C 182.472656 210.382812 184.550781 208.304688 184.550781 205.742188 C 184.550781 203.179688 182.472656 201.101562 179.910156 201.101562 C 181.878906 201.101562 183.476562 203.179688 183.476562 205.742188 Z M 175.269531 205.742188 C 175.269531 208.304688 177.347656 210.382812 179.910156 210.382812 C 177.941406 210.382812 176.347656 208.304688 176.347656 205.742188 C 176.347656 203.179688 177.941406 201.101562 179.910156 201.101562 C 177.347656 201.101562 175.269531 203.179688 175.269531 205.742188 Z M 170.914062 281.5625 C 165.179688 272.648438 172.191406 266.457031 175.839844 267.195312 C 179.566406 267.945312 180.261719 272.386719 180.261719 272.386719 C 180.257812 272.265625 180.246094 272.152344 180.242188 272.035156 L 180.347656 272.386719 L 180.730469 271.039062 C 181.242188 269.667969 182.382812 267.675781 184.769531 267.195312 C 188.417969 266.457031 195.429688 272.648438 189.695312 281.5625 C 185.980469 287.335938 181.570312 290.972656 180.5 291.808594 C 192.851562 282.4375 193.996094 276.167969 193.375 272.445312 C 193.25 271.710938 193.066406 271.019531 192.828125 270.378906 C 193.1875 267.574219 193.832031 260.058594 191.515625 253.425781 C 191.515625 253.425781 192.378906 261.082031 190.777344 267.304688 C 189.746094 266.421875 188.445312 265.910156 186.890625 265.902344 C 184.515625 265.890625 182.4375 267.15625 181.292969 269.050781 C 181.292969 262.320312 180.347656 245.765625 180.347656 245.765625 C 179.15625 253.164062 179.316406 269.050781 179.316406 269.050781 L 179.320312 269.058594 C 178.175781 267.160156 176.097656 265.890625 173.71875 265.902344 C 172.125 265.910156 170.800781 266.445312 169.757812 267.367188 C 168.136719 261.132812 169.003906 253.425781 169.003906 253.425781 C 166.636719 260.207031 167.359375 267.917969 167.714844 270.566406 C 167.507812 271.152344 167.347656 271.78125 167.234375 272.445312 C 166.613281 276.167969 167.757812 282.4375 180.105469 291.808594 C 179.039062 290.972656 174.628906 287.335938 170.914062 281.5625 Z M 180.171875 292.070312 C 180.199219 292.050781 180.226562 292.035156 180.253906 292.015625 C 180.164062 292.082031 179.90625 292.304688 179.515625 292.652344 C 180.007812 292.230469 180.289062 291.996094 180.289062 291.996094 C 180.285156 291.996094 180.273438 292.003906 180.253906 292.015625 C 180.238281 292.027344 180.207031 292.046875 180.171875 292.070312 Z M 128.285156 342.832031 C 127.40625 350.039062 131.449219 350.269531 132.589844 350.269531 C 133.734375 350.269531 135.875 349.726562 135.695312 347.949219 C 135.390625 344.984375 132.601562 345.5625 132.601562 345.5625 C 133.804688 345.5625 134.777344 346.535156 134.777344 347.738281 C 134.777344 348.9375 133.804688 349.910156 132.601562 349.910156 C 131.402344 349.910156 130.667969 348.914062 130.429688 347.738281 C 126.28125 327.363281 177.476562 293.820312 180.171875 292.070312 C 138.296875 319.070312 129.363281 334.019531 128.285156 342.832031 Z M 180.289062 341.179688 L 180.289062 338.246094 C 180.289062 338.246094 166.566406 339.007812 180.289062 291.996094 C 169.695312 321.503906 171.964844 341.179688 180.289062 341.179688 Z M 160.324219 322.757812 C 168.933594 328.917969 176.488281 304.128906 176.488281 304.128906 C 176.488281 304.128906 167.855469 326.527344 161.492188 320.292969 C 155.976562 314.894531 175.355469 296.378906 179.515625 292.652344 C 174.972656 296.570312 152.132812 316.898438 160.324219 322.757812 Z M 180.261719 190.617188 C 179.628906 191.019531 179.011719 191.433594 178.402344 191.851562 C 179.570312 191 180.261719 190.617188 180.261719 190.617188 " fill-opacity="1" fill-rule="nonzero"/></g><g clip-path="url(#619353784e)"><path fill="#ea2b80" d="M 234.53125 134.71875 C 235.378906 134.71875 236.066406 134.03125 236.066406 133.1875 C 236.066406 132.339844 235.378906 131.652344 234.53125 131.652344 C 233.683594 131.652344 233 132.339844 233 133.1875 C 233 134.03125 233.683594 134.71875 234.53125 134.71875 Z M 244.097656 126.9375 C 244.945312 126.9375 245.628906 126.25 245.628906 125.402344 C 245.628906 124.558594 244.945312 123.871094 244.097656 123.871094 C 243.25 123.871094 242.5625 124.558594 242.5625 125.402344 C 242.5625 126.25 243.25 126.9375 244.097656 126.9375 Z M 243.328125 102.902344 C 242.476562 102.902344 241.792969 103.589844 241.792969 104.4375 C 241.792969 105.28125 242.476562 105.96875 243.328125 105.96875 C 244.171875 105.96875 244.859375 105.28125 244.859375 104.4375 C 244.859375 103.589844 244.171875 102.902344 243.328125 102.902344 Z M 236.066406 45.707031 C 236.914062 45.707031 237.597656 45.023438 237.597656 44.171875 C 237.597656 43.328125 236.914062 42.640625 236.066406 42.640625 C 235.21875 42.640625 234.53125 43.328125 234.53125 44.171875 C 234.53125 45.023438 235.21875 45.707031 236.066406 45.707031 Z M 239.21875 82.367188 C 238.371094 82.367188 237.683594 83.054688 237.683594 83.902344 C 237.683594 84.75 238.371094 85.4375 239.21875 85.4375 C 240.066406 85.4375 240.753906 84.75 240.753906 83.902344 C 240.753906 83.054688 240.066406 82.367188 239.21875 82.367188 Z M 249.898438 88.632812 C 249.046875 88.632812 248.363281 89.320312 248.363281 90.164062 C 248.363281 91.011719 249.046875 91.699219 249.898438 91.699219 C 250.742188 91.699219 251.429688 91.011719 251.429688 90.164062 C 251.429688 89.320312 250.742188 88.632812 249.898438 88.632812 Z M 238.582031 187.539062 C 238.304688 188.90625 237.453125 190.0625 236.058594 190.0625 C 234.667969 190.0625 233.535156 188.933594 233.535156 187.539062 C 233.535156 186.144531 234.667969 185.015625 236.058594 185.015625 C 236.058594 185.015625 232.824219 184.347656 232.472656 187.789062 C 232.265625 189.847656 234.746094 190.480469 236.074219 190.480469 C 237.398438 190.480469 242.089844 190.210938 241.066406 181.847656 C 239.816406 171.625 229.453125 154.28125 180.867188 122.953125 C 183.992188 124.980469 243.390625 163.902344 238.582031 187.539062 Z M 180.726562 176.53125 L 180.726562 179.929688 C 190.386719 179.929688 193.019531 157.101562 180.726562 122.863281 C 196.652344 177.410156 180.726562 176.53125 180.726562 176.53125 Z M 180.769531 122.886719 C 180.800781 122.910156 180.832031 122.929688 180.867188 122.953125 C 180.824219 122.925781 180.789062 122.902344 180.769531 122.886719 C 180.75 122.875 180.734375 122.863281 180.726562 122.863281 C 180.726562 122.863281 181.054688 123.136719 181.625 123.625 C 181.171875 123.222656 180.875 122.964844 180.769531 122.886719 Z M 202.542969 155.699219 C 195.15625 162.929688 185.140625 136.941406 185.140625 136.941406 C 185.140625 136.941406 193.902344 165.703125 203.894531 158.558594 C 213.398438 151.757812 186.894531 128.171875 181.625 123.625 C 186.453125 127.949219 208.941406 149.433594 202.542969 155.699219 Z M 182.917969 6.667969 C 181.566406 5.675781 180.761719 5.234375 180.761719 5.234375 C 181.496094 5.703125 182.210938 6.183594 182.917969 6.667969 Z M 277.140625 64.378906 C 244.09375 67.03125 210.859375 84.714844 203.5625 88.800781 C 203.359375 90.554688 203.0625 92.230469 202.691406 93.835938 C 219.847656 86.246094 231.292969 86.242188 231.292969 86.242188 C 219.933594 88.476562 206.410156 94.828125 201.78125 97.199219 C 200.800781 100.292969 199.53125 103.070312 198.109375 105.5625 C 228.902344 97.6875 245.628906 91.027344 245.628906 91.027344 C 231.542969 100.082031 198.929688 108.425781 195.449219 109.703125 C 193.648438 112.183594 191.742188 114.285156 189.917969 116.039062 C 222.644531 114.761719 235.671875 110.273438 235.671875 110.273438 C 220.015625 119.5 187.933594 119.285156 186.1875 119.269531 C 183.992188 120.984375 182.207031 122.058594 181.339844 122.550781 L 182.949219 121.8125 C 182.949219 121.8125 187.058594 120.640625 201.515625 120.890625 C 215.566406 121.136719 230.882812 117.917969 246.742188 110.539062 C 277.390625 96.277344 277.140625 64.378906 277.140625 64.378906 Z M 216.371094 61.964844 C 220 56.273438 225.148438 52.625 225.148438 52.625 C 221.171875 56.609375 218.449219 61.917969 216.9375 65.449219 C 217.695312 70.695312 217.875 74.757812 217.910156 76.875 C 222.921875 66.117188 233 50.429688 233 50.429688 C 229.355469 62.746094 224.675781 72.296875 222.453125 76.488281 C 224.488281 75.660156 226.667969 74.816406 228.996094 73.972656 C 234.046875 65.867188 235.296875 57.515625 235.296875 57.515625 C 235.476562 64.679688 233.746094 69.980469 232.570312 72.722656 C 235.320312 71.792969 238.242188 70.875 241.339844 69.996094 L 241.015625 70.082031 C 250.949219 49.148438 242.695312 28.332031 242.695312 28.332031 C 227.605469 33.328125 217.015625 47.160156 213.957031 51.550781 C 215.019531 55.253906 215.800781 58.769531 216.371094 61.964844 Z M 180.726562 122.832031 C 180.71875 122.832031 180.714844 122.828125 180.710938 122.824219 C 180.707031 122.828125 180.703125 122.832031 180.699219 122.832031 L 180.710938 122.839844 Z M 180.085938 122.550781 C 179.214844 122.058594 177.433594 120.984375 175.234375 119.269531 C 173.492188 119.285156 141.410156 119.5 125.75 110.273438 C 125.75 110.273438 138.78125 114.761719 171.507812 116.039062 C 169.683594 114.285156 167.777344 112.183594 165.976562 109.703125 C 162.496094 108.425781 129.878906 100.082031 115.792969 91.027344 C 115.792969 91.027344 132.523438 97.6875 163.316406 105.5625 C 161.894531 103.070312 160.625 100.292969 159.644531 97.199219 C 155.015625 94.828125 141.492188 88.476562 130.128906 86.242188 C 130.128906 86.242188 141.574219 86.246094 158.734375 93.835938 C 158.363281 92.230469 158.066406 90.554688 157.863281 88.800781 C 150.5625 84.714844 117.328125 67.03125 84.28125 64.378906 C 84.28125 64.378906 84.03125 96.277344 114.679688 110.539062 C 130.539062 117.917969 145.859375 121.136719 159.90625 120.890625 C 174.363281 120.640625 178.472656 121.8125 178.472656 121.8125 Z M 120.40625 70.082031 L 120.085938 69.996094 C 123.183594 70.875 126.105469 71.792969 128.851562 72.722656 C 127.679688 69.980469 125.945312 64.679688 126.128906 57.515625 C 126.128906 57.515625 127.375 65.867188 132.429688 73.972656 C 134.753906 74.816406 136.9375 75.660156 138.96875 76.488281 C 136.746094 72.296875 132.066406 62.746094 128.425781 50.429688 C 128.425781 50.429688 138.5 66.117188 143.511719 76.875 C 143.546875 74.757812 143.730469 70.695312 144.488281 65.449219 C 142.972656 61.917969 140.253906 56.609375 136.273438 52.625 C 136.273438 52.625 141.425781 56.273438 145.050781 61.964844 C 145.621094 58.769531 146.402344 55.253906 147.46875 51.550781 C 144.410156 47.160156 133.820312 33.328125 118.726562 28.332031 C 118.726562 28.332031 110.476562 49.148438 120.40625 70.082031 Z M 229.894531 140.421875 C 199.164062 136.910156 198.289062 127.25 180.726562 122.863281 C 194.804688 124.351562 201.328125 134.316406 230.46875 137.652344 C 257.0625 140.695312 273.6875 130.652344 273.6875 130.652344 C 268.425781 119.59375 254.332031 115.140625 249.125 113.835938 C 238.859375 119.367188 227.679688 121.425781 217.121094 122.128906 C 220.773438 123.382812 227.34375 125.402344 233.710938 126.160156 C 233.710938 126.160156 218.945312 125.183594 210.960938 122.398438 C 206.550781 122.503906 202.308594 122.4375 198.363281 122.363281 C 200.164062 123.125 203.53125 124.605469 205.933594 125.976562 C 209.359375 127.929688 219.019531 131.464844 225.125 131.652344 C 225.769531 131.671875 212.023438 131.5625 203.894531 126.9375 C 198.925781 124.113281 195.398438 122.839844 193.402344 122.277344 C 188.460938 122.210938 184.152344 122.265625 180.777344 122.851562 C 180.777344 122.855469 180.761719 122.863281 180.761719 122.863281 C 180.761719 122.863281 180.777344 122.855469 180.777344 122.851562 C 180.769531 122.855469 180.761719 122.855469 180.757812 122.859375 C 180.757812 122.859375 180.761719 122.859375 180.761719 122.863281 C 180.761719 122.863281 180.757812 122.859375 180.757812 122.859375 C 180.757812 122.859375 180.753906 122.859375 180.753906 122.859375 L 180.761719 122.863281 L 180.660156 122.863281 L 180.671875 122.859375 C 180.667969 122.859375 180.667969 122.859375 180.664062 122.859375 C 180.664062 122.859375 180.660156 122.863281 180.660156 122.863281 C 180.664062 122.859375 180.664062 122.859375 180.664062 122.859375 C 180.660156 122.855469 180.652344 122.855469 180.644531 122.851562 C 180.648438 122.855469 180.660156 122.863281 180.660156 122.863281 C 180.660156 122.863281 180.648438 122.855469 180.644531 122.851562 C 177.273438 122.265625 172.960938 122.210938 168.019531 122.277344 C 166.023438 122.839844 162.496094 124.113281 157.53125 126.9375 C 149.402344 131.5625 135.652344 131.671875 136.296875 131.652344 C 142.40625 131.464844 152.0625 127.929688 155.492188 125.976562 C 157.894531 124.605469 161.257812 123.125 163.058594 122.363281 C 159.113281 122.4375 154.875 122.503906 150.460938 122.398438 C 142.476562 125.183594 127.714844 126.160156 127.714844 126.160156 C 134.078125 125.402344 140.648438 123.382812 144.304688 122.128906 C 133.746094 121.425781 122.5625 119.367188 112.300781 113.835938 C 107.09375 115.140625 93 119.59375 87.734375 130.652344 C 87.734375 130.652344 104.363281 140.695312 130.957031 137.652344 C 160.09375 134.316406 166.621094 124.351562 180.695312 122.863281 C 163.136719 127.25 162.257812 136.910156 131.527344 140.421875 C 103.492188 143.625 86.753906 130.765625 86.753906 130.765625 C 92.019531 116.714844 109.578125 112.328125 110.808594 113.007812 C 109.503906 112.253906 108.214844 111.445312 106.945312 110.570312 C 81.484375 93.011719 83.242188 63.160156 83.242188 63.160156 C 95.945312 64.335938 107.242188 66.542969 116.976562 69.136719 L 116.253906 68.941406 C 116.253906 68.941406 107.824219 49.992188 118.359375 27.164062 C 118.359375 27.164062 137.40625 33.546875 148.539062 48.058594 C 153.121094 34.066406 161.863281 18.085938 178.503906 6.667969 C 171.609375 11.707031 150.304688 31.085938 146.886719 79.964844 C 152.386719 82.570312 156.011719 84.703125 157.59375 85.683594 C 157.554688 84.863281 157.53125 84.027344 157.53125 83.179688 C 157.53125 54.394531 172.757812 42.753906 180.660156 38.363281 C 180.660156 38.363281 160.3125 50.414062 160.3125 83.730469 C 160.3125 109.667969 177.441406 120.949219 180.257812 122.628906 L 180.699219 122.832031 C 180.703125 122.828125 180.707031 122.824219 180.710938 122.824219 C 180.664062 122.789062 180.589844 122.730469 180.484375 122.648438 C 180.558594 122.707031 180.632812 122.761719 180.710938 122.824219 C 180.789062 122.761719 180.863281 122.707031 180.941406 122.648438 C 180.832031 122.730469 180.757812 122.789062 180.714844 122.824219 C 180.71875 122.824219 180.71875 122.828125 180.726562 122.832031 L 181.167969 122.628906 C 183.984375 120.949219 201.109375 109.667969 201.109375 83.730469 C 201.109375 50.414062 180.761719 38.363281 180.761719 38.363281 C 188.664062 42.753906 203.894531 54.394531 203.894531 83.179688 C 203.894531 84.027344 203.871094 84.863281 203.828125 85.683594 C 205.410156 84.703125 209.039062 82.570312 214.535156 79.964844 C 211.117188 31.085938 189.8125 11.707031 182.917969 6.667969 C 199.5625 18.085938 208.304688 34.066406 212.886719 48.058594 C 224.015625 33.546875 243.066406 27.164062 243.066406 27.164062 C 253.601562 49.992188 245.167969 68.941406 245.167969 68.941406 L 244.445312 69.136719 C 254.179688 66.542969 265.480469 64.335938 278.183594 63.160156 C 278.183594 63.160156 279.941406 93.011719 254.480469 110.570312 C 253.210938 111.445312 251.917969 112.253906 250.613281 113.007812 C 251.84375 112.328125 269.40625 116.714844 274.671875 130.765625 C 274.671875 130.765625 257.929688 143.625 229.894531 140.421875 Z M 181.789062 185.738281 C 181.789062 184.890625 181.101562 184.207031 180.253906 184.207031 C 179.410156 184.207031 178.722656 184.890625 178.722656 185.738281 C 178.722656 186.585938 179.410156 187.273438 180.253906 187.273438 C 181.101562 187.273438 181.789062 186.585938 181.789062 185.738281 Z M 237.597656 194.070312 C 236.753906 194.070312 236.066406 194.757812 236.066406 195.605469 C 236.066406 196.449219 236.753906 197.136719 237.597656 197.136719 C 238.445312 197.136719 239.132812 196.449219 239.132812 195.605469 C 239.132812 194.757812 238.445312 194.070312 237.597656 194.070312 Z M 126.113281 194.070312 C 125.269531 194.070312 124.582031 194.757812 124.582031 195.605469 C 124.582031 196.449219 125.269531 197.136719 126.113281 197.136719 C 126.960938 197.136719 127.648438 196.449219 127.648438 195.605469 C 127.648438 194.757812 126.960938 194.070312 126.113281 194.070312 Z M 126.890625 131.652344 C 126.042969 131.652344 125.355469 132.339844 125.355469 133.1875 C 125.355469 134.03125 126.042969 134.71875 126.890625 134.71875 C 127.738281 134.71875 128.425781 134.03125 128.425781 133.1875 C 128.425781 132.339844 127.738281 131.652344 126.890625 131.652344 Z M 117.328125 123.871094 C 116.480469 123.871094 115.792969 124.558594 115.792969 125.402344 C 115.792969 126.25 116.480469 126.9375 117.328125 126.9375 C 118.175781 126.9375 118.859375 126.25 118.859375 125.402344 C 118.859375 124.558594 118.175781 123.871094 117.328125 123.871094 Z M 118.097656 102.902344 C 117.25 102.902344 116.5625 103.589844 116.5625 104.4375 C 116.5625 105.28125 117.25 105.96875 118.097656 105.96875 C 118.945312 105.96875 119.632812 105.28125 119.632812 104.4375 C 119.632812 103.589844 118.945312 102.902344 118.097656 102.902344 Z M 125.355469 45.707031 C 126.203125 45.707031 126.890625 45.023438 126.890625 44.171875 C 126.890625 43.328125 126.203125 42.640625 125.355469 42.640625 C 124.511719 42.640625 123.824219 43.328125 123.824219 44.171875 C 123.824219 45.023438 124.511719 45.707031 125.355469 45.707031 Z M 179.175781 55.984375 C 179.175781 56.832031 179.863281 57.515625 180.707031 57.515625 C 181.554688 57.515625 182.242188 56.832031 182.242188 55.984375 C 182.242188 55.136719 181.554688 54.449219 180.707031 54.449219 C 179.863281 54.449219 179.175781 55.136719 179.175781 55.984375 Z M 193.757812 72.507812 C 193.757812 71.660156 193.070312 70.972656 192.226562 70.972656 C 191.378906 70.972656 190.691406 71.660156 190.691406 72.507812 C 190.691406 73.355469 191.378906 74.039062 192.226562 74.039062 C 193.070312 74.039062 193.757812 73.355469 193.757812 72.507812 Z M 166.125 72.507812 C 166.125 73.355469 166.8125 74.039062 167.660156 74.039062 C 168.507812 74.039062 169.191406 73.355469 169.191406 72.507812 C 169.191406 71.660156 168.507812 70.972656 167.660156 70.972656 C 166.8125 70.972656 166.125 71.660156 166.125 72.507812 Z M 122.085938 85.4375 C 122.933594 85.4375 123.621094 84.75 123.621094 83.902344 C 123.621094 83.054688 122.933594 82.367188 122.085938 82.367188 C 121.242188 82.367188 120.554688 83.054688 120.554688 83.902344 C 120.554688 84.75 121.242188 85.4375 122.085938 85.4375 Z M 111.527344 88.632812 C 110.679688 88.632812 109.992188 89.320312 109.992188 90.164062 C 109.992188 91.011719 110.679688 91.699219 111.527344 91.699219 C 112.375 91.699219 113.0625 91.011719 113.0625 90.164062 C 113.0625 89.320312 112.375 88.632812 111.527344 88.632812 Z M 180.253906 192.65625 C 182.066406 192.65625 183.53125 194.566406 183.53125 196.921875 C 183.53125 199.277344 182.066406 201.183594 180.253906 201.183594 C 182.609375 201.183594 184.519531 199.277344 184.519531 196.921875 C 184.519531 194.566406 182.609375 192.65625 180.253906 192.65625 Z M 176.980469 196.921875 C 176.980469 194.566406 178.445312 192.65625 180.253906 192.65625 C 177.902344 192.65625 175.992188 194.566406 175.992188 196.921875 C 175.992188 199.277344 177.902344 201.183594 180.253906 201.183594 C 178.445312 201.183594 176.980469 199.277344 176.980469 196.921875 Z M 184.390625 22.785156 C 184.390625 25.757812 182.539062 28.171875 180.253906 28.171875 C 183.230469 28.171875 185.640625 25.757812 185.640625 22.785156 C 185.640625 19.8125 183.230469 17.402344 180.253906 17.402344 C 182.539062 17.402344 184.390625 19.8125 184.390625 22.785156 Z M 174.871094 22.785156 C 174.871094 25.757812 177.28125 28.171875 180.253906 28.171875 C 177.972656 28.171875 176.121094 25.757812 176.121094 22.785156 C 176.121094 19.8125 177.972656 17.402344 180.253906 17.402344 C 177.28125 17.402344 174.871094 19.8125 174.871094 22.785156 Z M 169.816406 110.757812 C 163.164062 100.414062 171.296875 93.234375 175.53125 94.089844 C 179.855469 94.960938 180.660156 100.109375 180.660156 100.109375 C 180.660156 99.972656 180.644531 99.839844 180.636719 99.703125 L 180.761719 100.109375 L 181.207031 98.546875 C 181.800781 96.957031 183.121094 94.648438 185.890625 94.089844 C 190.125 93.234375 198.261719 100.414062 191.609375 110.757812 C 187.296875 117.457031 182.179688 121.675781 180.941406 122.648438 C 195.269531 111.769531 196.597656 104.5 195.875 100.179688 C 195.734375 99.328125 195.519531 98.523438 195.242188 97.78125 C 195.660156 94.527344 196.40625 85.808594 193.71875 78.113281 C 193.71875 78.113281 194.71875 86.992188 192.863281 94.21875 C 191.667969 93.191406 190.160156 92.597656 188.351562 92.589844 C 185.597656 92.574219 183.1875 94.042969 181.859375 96.242188 C 181.859375 88.433594 180.761719 69.222656 180.761719 69.222656 C 179.382812 77.808594 179.566406 96.242188 179.566406 96.242188 L 179.570312 96.25 C 178.242188 94.046875 175.828125 92.574219 173.070312 92.589844 C 171.222656 92.597656 169.683594 93.21875 168.476562 94.289062 C 166.59375 87.050781 167.601562 78.113281 167.601562 78.113281 C 164.851562 85.980469 165.695312 94.925781 166.105469 98 C 165.863281 98.679688 165.675781 99.410156 165.546875 100.179688 C 164.824219 104.5 166.152344 111.769531 180.484375 122.648438 C 179.246094 121.675781 174.125 117.457031 169.816406 110.757812 Z M 180.558594 122.953125 C 180.589844 122.929688 180.621094 122.910156 180.65625 122.886719 C 180.550781 122.964844 180.25 123.222656 179.796875 123.625 C 180.367188 123.136719 180.695312 122.863281 180.695312 122.863281 C 180.691406 122.863281 180.675781 122.875 180.65625 122.886719 C 180.632812 122.902344 180.597656 122.925781 180.558594 122.953125 Z M 120.355469 181.847656 C 119.332031 190.210938 124.027344 190.480469 125.351562 190.480469 C 126.675781 190.480469 129.160156 189.847656 128.949219 187.789062 C 128.597656 184.347656 125.363281 185.015625 125.363281 185.015625 C 126.757812 185.015625 127.886719 186.144531 127.886719 187.539062 C 127.886719 188.933594 126.757812 190.0625 125.363281 190.0625 C 123.96875 190.0625 123.117188 188.90625 122.839844 187.539062 C 118.03125 163.902344 177.433594 124.980469 180.558594 122.953125 C 131.96875 154.28125 121.605469 171.625 120.355469 181.847656 Z M 180.695312 179.929688 L 180.695312 176.53125 C 180.695312 176.53125 164.769531 177.410156 180.695312 122.863281 C 168.402344 157.101562 171.035156 179.929688 180.695312 179.929688 Z M 157.53125 158.558594 C 167.519531 165.703125 176.28125 136.941406 176.28125 136.941406 C 176.28125 136.941406 166.269531 162.929688 158.882812 155.699219 C 152.484375 149.433594 174.96875 127.949219 179.796875 123.625 C 174.523438 128.171875 148.023438 151.757812 157.53125 158.558594 Z M 180.660156 5.234375 C 179.925781 5.703125 179.210938 6.183594 178.503906 6.667969 C 179.859375 5.675781 180.660156 5.234375 180.660156 5.234375 " fill-opacity="1" fill-rule="nonzero"/></g><path fill="#ea2b80" d="M 187.5 375 C 84.144531 375 0 290.855469 0 187.5 C 0 84.144531 84.144531 0 187.5 0 C 290.855469 0 375 84.144531 375 187.5 C 375 290.855469 290.855469 375 187.5 375 Z M 187.5 2.769531 C 85.621094 2.769531 2.769531 85.621094 2.769531 187.5 C 2.769531 289.378906 85.621094 372.230469 187.5 372.230469 C 289.378906 372.230469 372.230469 289.378906 372.230469 187.5 C 372.230469 85.621094 289.378906 2.769531 187.5 2.769531 Z M 187.5 2.769531 " fill-opacity="1" fill-rule="nonzero"/></svg>